<?xml version="1.0" standalone="no"?>
<!DOCTYPE svg PUBLIC "-//W3C//DTD SVG 20010904//EN"
 "http://www.w3.org/TR/2001/REC-SVG-20010904/DTD/svg10.dtd">
<svg version="1.0" xmlns="http://www.w3.org/2000/svg"
 width="1024.000000pt" height="1024.000000pt" viewBox="0 0 1024.000000 1024.000000"
 preserveAspectRatio="xMidYMid meet">
<metadata>
Created by potrace 1.14, written by Peter Selinger 2001-2017
</metadata>
<g transform="translate(0.000000,1024.000000) scale(0.100000,-0.100000)"
fill="#000000" stroke="none">
<path d="M4375 8440 c-174 -26 -344 -114 -482 -248 -155 -150 -245 -341 -268
-564 l-7 -66 -43 -17 c-100 -38 -193 -161 -215 -285 -32 -177 58 -347 225
-427 l35 -17 0 -1454 0 -1454 -42 7 c-75 13 -262 7 -349 -10 -162 -33 -241
-66 -824 -350 -305 -149 -389 -205 -470 -315 -24 -33 -47 -52 -73 -61 -85 -27
-153 -96 -182 -182 -20 -64 -9 -157 25 -210 17 -25 158 -205 314 -399 157
-194 339 -420 404 -503 66 -82 136 -167 156 -188 143 -153 386 -115 482 75 24
48 29 69 29 133 l0 76 56 60 c31 32 61 56 67 52 5 -3 7 -1 4 4 -9 14 75 91
106 98 23 6 102 -12 242 -55 33 -10 155 -46 270 -80 116 -34 253 -75 305 -90
185 -57 452 -130 532 -146 62 -13 114 -15 217 -11 145 5 222 21 368 77 l80 31
84 -17 c66 -13 172 -17 500 -21 475 -6 529 -1 659 63 67 33 97 59 280 244 214
215 396 404 539 556 112 119 295 308 588 605 285 289 298 309 291 437 -11 220
-192 349 -430 307 -43 -7 -99 -25 -125 -39 -25 -15 -47 -25 -48 -24 -1 2 -9
17 -18 33 -29 56 -85 111 -149 146 -61 33 -66 34 -178 34 -109 0 -119 -2 -182
-32 -37 -17 -90 -53 -118 -79 -41 -39 -53 -45 -61 -33 -5 7 -9 19 -9 26 0 19
-87 98 -135 122 -29 14 -75 26 -118 30 l-72 6 -7 165 c-10 256 2 2363 14 2378
6 6 16 12 22 12 7 0 40 20 75 46 124 90 179 225 153 377 -22 124 -89 216 -204
277 -64 34 -64 34 -72 150 -9 120 -65 263 -151 385 -38 53 -215 233 -215 218
0 -3 -15 6 -33 20 -73 56 -214 111 -323 127 -80 11 -1442 12 -1519 0z m1583
-197 c98 -33 200 -99 282 -183 87 -88 139 -172 178 -285 l27 -80 -4 -2109 -4
-2109 -31 -28 c-17 -15 -32 -27 -32 -26 -1 1 -4 784 -7 1741 l-6 1738 26 87
c24 78 27 102 27 246 0 192 -16 265 -95 422 -86 173 -218 306 -387 388 -147
72 -128 70 -802 70 -678 0 -657 2 -815 -74 -214 -104 -384 -313 -455 -561 -31
-107 -38 -298 -16 -410 10 -46 22 -92 27 -103 10 -17 14 -3115 5 -3125 -2 -2
-20 4 -40 12 l-36 15 0 1858 c0 1087 4 1888 10 1930 38 294 286 553 578 603
26 4 376 7 777 6 719 -1 731 -1 793 -23z m-156 -329 c158 -64 286 -184 363
-339 63 -129 79 -197 79 -340 -1 -103 -5 -132 -28 -202 -67 -206 -253 -386
-452 -437 -92 -24 -1176 -24 -1267 0 -224 58 -413 251 -474 484 -23 87 -22
253 1 339 67 248 244 441 464 508 77 22 78 22 657 20 l580 -2 77 -31z m-2172
-719 c0 -165 -1 -175 -18 -166 -50 26 -88 129 -75 201 10 58 60 140 85 140 4
0 8 -79 8 -175z m3038 139 c73 -88 61 -234 -24 -297 l-24 -18 0 176 c0 101 4
175 9 175 5 0 23 -16 39 -36z m-445 -2187 c-1 -848 -2 -1564 -2 -1591 -1 -46
-2 -48 -18 -34 -10 8 -40 26 -68 39 l-50 24 -552 3 c-523 2 -557 2 -635 -17
-90 -22 -310 -59 -398 -67 -53 -5 -56 -4 -100 36 -76 69 -206 160 -293 204
l-82 41 -1 1310 c0 721 2 1372 5 1448 l6 138 35 -36 c88 -92 210 -168 340
-212 l85 -28 625 0 c666 0 662 0 791 51 80 31 193 108 259 176 30 32 55 58 55
58 0 0 -1 -694 -2 -1543z m555 -1086 c18 -12 41 -40 52 -62 26 -49 22 -57 -81
-176 -42 -48 -88 -101 -102 -118 l-26 -30 -1 201 c0 110 3 204 8 208 15 16
118 0 150 -23z m664 -26 c39 -26 68 -75 68 -114 0 -21 -38 -67 -224 -268 -65
-70 -259 -283 -430 -473 -534 -590 -660 -724 -704 -748 -36 -20 -407 -159
-972 -363 -319 -116 -315 -116 -1155 134 -732 218 -705 212 -786 175 -42 -19
-81 -53 -173 -151 -65 -70 -126 -127 -135 -126 -9 0 -43 35 -76 77 -33 42 -89
112 -125 156 -35 45 -178 227 -318 406 -139 179 -270 339 -290 357 l-36 31 27
36 c15 19 47 49 70 64 96 67 823 417 957 462 220 74 475 60 735 -40 156 -61
339 -180 423 -276 22 -24 52 -54 66 -65 l27 -21 232 41 c127 23 264 49 302 57
59 14 155 16 590 17 516 0 520 0 562 -22 47 -23 87 -77 98 -128 8 -40 -10 -99
-39 -132 -44 -49 -58 -51 -469 -51 -413 0 -426 -1 -503 -53 -19 -14 -62 -61
-94 -105 -32 -44 -70 -89 -84 -100 -14 -11 -157 -64 -318 -117 -167 -56 -303
-107 -315 -118 -55 -50 -5 -147 75 -147 32 0 376 109 579 183 72 27 121 67
200 164 41 51 85 95 97 98 11 3 199 6 416 7 381 3 397 4 441 25 63 29 114 75
164 151 23 35 155 188 292 340 137 152 315 352 396 443 80 91 158 174 174 184
78 51 186 55 255 10z m574 -136 c46 -22 84 -72 84 -110 0 -13 -10 -40 -23 -60
-12 -20 -209 -227 -438 -460 -397 -405 -808 -830 -988 -1021 -165 -176 -174
-178 -601 -177 l-315 0 50 19 c28 10 118 42 200 70 206 72 285 110 346 167 28
26 201 212 383 413 182 200 381 419 441 485 61 67 151 166 200 220 179 197
337 365 382 405 78 68 197 89 279 49z m-6034 -931 c31 -30 224 -269 353 -438
28 -35 57 -73 67 -85 44 -54 308 -384 353 -442 17 -21 51 -60 77 -86 25 -26
45 -55 44 -63 -6 -41 -62 -72 -109 -60 -40 10 -74 44 -168 165 -49 64 -95 123
-102 131 -7 8 -73 92 -147 185 -73 94 -168 213 -209 265 -41 52 -107 133 -146
180 -143 170 -159 208 -113 257 30 32 59 29 100 -9z"/>
<path d="M4482 7446 c-61 -20 -107 -58 -132 -112 -94 -192 115 -392 301 -287
128 72 159 224 66 329 -59 68 -154 96 -235 70z"/>
<path d="M5632 7441 c-157 -54 -203 -241 -89 -359 128 -133 359 -45 375 143 8
99 -57 189 -160 220 -63 18 -61 19 -126 -4z"/>
<path d="M4990 7023 c-56 -22 -69 -95 -25 -138 23 -24 29 -25 160 -25 l137 0
30 30 c25 26 29 36 24 63 -13 64 -31 72 -179 74 -72 1 -139 0 -147 -4z"/>
<path d="M5970 4535 c-11 -13 -10 -14 4 -9 9 3 16 10 16 15 0 13 -6 11 -20 -6z"/>
<path d="M6008 4543 c7 -3 16 -2 19 1 4 3 -2 6 -13 5 -11 0 -14 -3 -6 -6z"/>
<path d="M7405 7095 c-275 -59 -484 -293 -510 -571 -9 -91 9 -230 40 -306 l24
-59 -64 -197 c-35 -108 -67 -209 -70 -223 -13 -53 47 -74 125 -45 19 8 104 41
189 76 l155 61 85 -15 c173 -32 316 -14 462 59 56 28 95 58 159 124 127 130
178 245 187 426 6 126 -13 217 -68 328 -70 138 -203 260 -344 315 -100 40
-260 51 -370 27z m328 -203 c87 -41 192 -143 230 -224 59 -125 63 -287 10
-400 -106 -225 -327 -331 -568 -273 -89 21 -123 18 -229 -18 -78 -27 -95 -31
-91 -18 35 113 56 192 56 216 1 17 -10 55 -25 86 -118 252 8 550 273 646 57
20 81 23 171 21 94 -3 112 -7 173 -36z"/>
</g>
</svg>
